<svg xmlns="http://www.w3.org/2000/svg" viewBox="0 0 64 64" fill="none">
  <path d="M32 8C20 8 12 18 12 28C12 36 18 42 26 44C24 50 22 56 26 60C30 64 36 60 38 56C40 50 42 44 44 44C52 42 56 36 56 28C56 18 44 8 32 8Z" fill="#00B894"/>
  <path d="M32 12C42 12 48 20 48 28C48 34 44 40 38 42C36 44 34 48 36 52C38 56 42 54 44 50C46 44 48 40 48 40C52 38 56 34 56 28C56 18 46 12 32 12Z" fill="#00D9A5"/>
  <path d="M22 30C24 28 28 28 30 30C32 32 32 36 30 38C28 40 24 40 22 38C20 36 20 32 22 30Z" fill="white" opacity="0.4"/>
</svg>
